HIERARCHY
ROOT root
{
	OFFSET	0	13.1	24.9
	CHANNELS 6  Xposition Yposition Zposition Xrotation Yrotation Zrotation
	JOINT spine_1
	{
		OFFSET	0	9.99999	0
		CHANNELS 3  Xrotation Yrotation Zrotation
		JOINT spine_2
		{
			OFFSET	0	112	-10
			CHANNELS 3  Xrotation Yrotation Zrotation
			JOINT spine_3
			{
				OFFSET	0	206.5	19.3
				CHANNELS 3  Xrotation Yrotation Zrotation
				JOINT spine_4
				{
					OFFSET	0	110.4	14.6
					CHANNELS 3  Xrotation Yrotation Zrotation
					JOINT neck_1
					{
						OFFSET	0	71.8	-50.3
						CHANNELS 3  Xrotation Yrotation Zrotation
						JOINT neck_2
						{
							OFFSET	0	86.2	-25.8
							CHANNELS 3  Xrotation Yrotation Zrotation
							JOINT head_ee
							{
								OFFSET	0	179.8	-8.7
								CHANNELS 3  Xrotation Yrotation Zrotation
								End Site
								{
									OFFSET	1	0	0
								}
							}
						}
					}
					JOINT left_clavicle
					{
						OFFSET	-43.2	22.4	-70.8
						CHANNELS 3  Xrotation Yrotation Zrotation
						JOINT left_shoulder
						{
							OFFSET	-93.9	-5.79999	48.7
							CHANNELS 3  Xrotation Yrotation Zrotation
							JOINT left_elbow
							{
								OFFSET	-291.4	-30.8	15.2
								CHANNELS 3  Xrotation Yrotation Zrotation
								JOINT left_lowarm_twist
								{
									OFFSET	-110.7	-3.89999	13.6
									CHANNELS 3  Xrotation Yrotation Zrotation
									JOINT left_hand
									{
										OFFSET	-110.7	-3.89999	13.6
										CHANNELS 3  Xrotation Yrotation Zrotation
										JOINT left_ee
										{
											OFFSET	-80.8	-5.10001	12.1
											CHANNELS 3  Xrotation Yrotation Zrotation
											End Site
											{
												OFFSET	1	0	0
											}
										}
									}
								}
							}
						}
					}
					JOINT right_clavicle
					{
						OFFSET	43.2	22.4	-70.8
						CHANNELS 3  Xrotation Yrotation Zrotation
						JOINT right_shoulder
						{
							OFFSET	93.9	-5.79999	48.7
							CHANNELS 3  Xrotation Yrotation Zrotation
							JOINT right_elbow
							{
								OFFSET	291.4	-30.8	15.2
								CHANNELS 3  Xrotation Yrotation Zrotation
								JOINT right_lowarm_twist
								{
									OFFSET	110.7	-3.89999	13.6
									CHANNELS 3  Xrotation Yrotation Zrotation
									JOINT right_hand
									{
										OFFSET	110.7	-3.89999	13.6
										CHANNELS 3  Xrotation Yrotation Zrotation
										JOINT right_ee
										{
											OFFSET	80.8	-5.10001	12.1
											CHANNELS 3  Xrotation Yrotation Zrotation
											End Site
											{
												OFFSET	1	0	0
											}
										}
									}
								}
							}
						}
					}
				}
			}
		}
	}
	JOINT left_hip
	{
		OFFSET	-82.8	-127.5	0.300001
		CHANNELS 3  Xrotation Yrotation Zrotation
		JOINT left_knee
		{
			OFFSET	-28.2	-396.7	2.2
			CHANNELS 3  Xrotation Yrotation Zrotation
			JOINT left_ankle
			{
				OFFSET	-11.7	-411.3	35.4
				CHANNELS 3  Xrotation Yrotation Zrotation
				JOINT left_toes
				{
					OFFSET	0	-60	-88.6
					CHANNELS 3  Xrotation Yrotation Zrotation
					JOINT left_foot_ee
					{
						OFFSET	-22.5	-16.5	-42.2
						CHANNELS 3  Xrotation Yrotation Zrotation
						End Site
						{
							OFFSET	1	0	0
						}
					}
				}
			}
		}
	}
	JOINT right_hip
	{
		OFFSET	82.8	-127.5	0.300001
		CHANNELS 3  Xrotation Yrotation Zrotation
		JOINT right_knee
		{
			OFFSET	28.2	-396.7	2.2
			CHANNELS 3  Xrotation Yrotation Zrotation
			JOINT right_ankle
			{
				OFFSET	11.7	-411.3	35.4
				CHANNELS 3  Xrotation Yrotation Zrotation
				JOINT right_toes
				{
					OFFSET	0	-60	-88.6
					CHANNELS 3  Xrotation Yrotation Zrotation
					JOINT right_foot_ee
					{
						OFFSET	22.5	-16.5	-42.2
						CHANNELS 3  Xrotation Yrotation Zrotation
						End Site
						{
							OFFSET	1	0	0
						}
					}
				}
			}
		}
	}
}
MOTION
Frames: 6
Frame Time: 0.02
3474.45787491 693.547 -1515.54216544 6.93657389621 68.2192582168 -13.3452928863 -1.8478 0.907797 3.50196 -1.84124 0.683264 3.55254 -1.79104 -0.191448 3.6125 -1.80904 0.381104 3.59746 1.91731 10.2427 -15.7566 4.12248 31.0682 -17.2531 -0.0 0.0 -0.0 -6.29776 23.4822 -5.97338 -5.17431 -25.4953 72.3815 2.37192 -49.5923 1.09591 -49.5623 -4.02058 4.65981 1.98252 28.3815 22.4765 -0.0 0.0 -0.0 3.62235 7.58307 -6.49873 0.575018 38.5755 -74.1827 0.98508 26.0109 -0.227528 -57.1063 4.92523 -5.00202 0.336193 10.0514 2.00131 0.0 0.0 0.0 11.0201 -1.40248 3.1578 -40.2236 -0.481052 6.02955 38.873 22.8914 -4.99575 -4.94661 0.0 0.0 -0.0 0.0 -0.0 6.54493 11.2022 4.88653 -42.965 0.666093 -6.40829 40.0443 -2.14913 4.86743 11.4299 -0.0 -0.0 0.0 0.0 0.0 
3475.98379573 693.547 -1519.09634974 6.3707367241 66.1804375591 -12.7315928658 -1.8478 0.907797 3.50196 -1.84124 0.683264 3.55254 -1.79104 -0.191448 3.6125 -1.80904 0.381104 3.59746 1.91731 10.2427 -15.7566 4.12248 31.0682 -17.2531 -0.0 0.0 -0.0 -6.29776 23.4822 -5.97338 -5.17431 -25.4953 72.3815 2.37192 -49.5923 1.09591 -49.5623 -4.02058 4.65981 1.98252 28.3815 22.4765 -0.0 0.0 -0.0 3.62235 7.58307 -6.49873 0.575018 38.5755 -74.1827 0.98508 26.0109 -0.227528 -57.1063 4.92523 -5.00202 0.336193 10.0514 2.00131 0.0 0.0 0.0 11.0201 -1.40248 3.1578 -40.2236 -0.481052 6.02955 38.873 22.8914 -4.99575 -4.94661 0.0 0.0 -0.0 0.0 -0.0 6.54493 11.2022 4.88653 -42.965 0.666093 -6.40829 40.0443 -2.14913 4.86743 11.4299 -0.0 -0.0 0.0 0.0 0.0 
3456.40256223 685.094 -1512.1281147 6.44881177093 71.755762394 -12.2976675883 -1.84918 1.16981 3.57523 -1.84256 0.940094 3.64231 -1.77413 0.0378814 3.76132 -1.79331 0.631023 3.70828 -1.91524 11.085 -16.2686 -0.0940096 32.7619 -16.3579 -0.0 0.0 -0.0 -6.55771 23.8675 -6.22084 -8.23165 -26.5263 72.0748 2.14516 -46.7338 0.926911 -49.6244 -4.02783 4.66311 2.21786 27.7627 23.761 -0.0 0.0 -0.0 4.24308 8.38626 -7.71889 4.21653 38.8593 -73.8683 1.09589 28.4954 -0.278281 -57.6054 4.98654 -5.02041 0.251701 8.58907 1.94784 0.0 0.0 0.0 15.8753 5.14148 1.50298 -43.9013 -0.733438 6.5356 41.0259 23.7432 -5.22493 -3.03237 0.0 0.0 -0.0 0.0 -0.0 1.51228 5.56619 5.78646 -36.4663 0.257396 -5.49724 41.0559 1.21875 4.97542 10.4206 -0.0 -0.0 0.0 0.0 0.0 
3445.11559345 683.204 -1509.14203929 11.1325603545 71.6644780957 -16.9439943775 -2.15396 1.32248 3.70566 -2.14698 1.08418 3.78215 -2.06517 0.124479 3.93229 -2.08597 0.743481 3.86348 -3.43991 10.9759 -16.7333 -1.8016 32.7964 -16.2972 -0.0 0.0 -0.0 -6.4279 23.8256 -6.05204 -10.479 -27.815 72.04 1.76777 -41.2049 0.664591 -49.5082 -4.01427 4.65694 2.26228 28.3024 24.147 -0.0 0.0 -0.0 4.61341 8.64643 -8.467 6.22666 39.4359 -74.1424 1.13609 29.3692 -0.29773 -57.6259 4.98906 -5.02115 0.348667 10.3135 2.02909 0.0 0.0 0.0 16.6063 4.33133 1.08733 -46.319 -0.916908 6.85918 40.3729 23.7629 -5.16441 -2.19769 0.0 0.0 -0.0 0.0 -0.0 0.50982 4.54331 6.4348 -37.9272 0.340192 -5.70591 40.1409 -0.147995 4.88696 9.41179 -0.0 -0.0 0.0 0.0 0.0 
3439.06425159 688.16 -1510.02667652 13.4383545261 72.5312794419 -19.3262851061 -2.31836 1.42182 3.83052 -2.31097 1.17539 3.91306 -2.21923 0.170056 4.08198 -2.24155 0.812074 4.00413 -6.30051 13.3014 -16.8734 -5.01158 36.8198 -14.9714 -0.0 0.0 -0.0 -6.18929 23.4897 -5.81845 -11.8365 -26.3756 71.7521 1.53145 -37.1828 0.515162 -48.001 -3.83938 4.57429 2.31797 28.1501 24.4549 -0.0 0.0 -0.0 4.56688 8.71314 -8.36658 9.36558 41.4019 -76.1532 1.22355 31.2194 -0.341858 -57.9644 5.03074 -5.03331 0.151156 9.79991 3.14412 0.0 0.0 0.0 19.9047 2.72692 -0.792586 -45.5679 -0.858435 6.75946 38.4433 25.3512 -5.02696 -3.05625 0.0 0.0 -0.0 0.0 -0.0 -0.849248 1.93524 6.67367 -32.9547 0.0804007 -4.98772 38.2316 -0.399293 4.7177 7.68441 -0.0 -0.0 0.0 0.0 0.0 
3437.62795531 687.119 -1510.73160287 14.4049278033 72.998168973 -19.8404398995 -2.22698 1.3914 3.88346 -2.21932 1.14166 3.96396 -2.12889 0.131199 4.12275 -2.15176 0.780125 4.05052 -4.74416 13.816 -14.902 -3.40256 36.45 -13.4035 -0.0 0.0 -0.0 -5.42076 23.3301 -4.78489 -13.4859 -25.6248 71.4923 1.10916 -28.7856 0.284644 -46.7652 -3.69764 4.50312 2.39518 28.9456 25.0872 -0.0 0.0 -0.0 4.88425 9.95982 -8.94759 11.5168 42.8988 -77.2819 1.21323 31.0046 -0.336521 -60.1141 5.29695 -5.10472 0.0752388 8.17623 2.96432 0.0 0.0 0.0 21.6071 1.14965 -2.15871 -45.2938 -0.837429 6.72289 37.7832 26.2885 -4.99106 -4.66398 0.0 0.0 -0.0 0.0 -0.0 -1.9527 -2.81646 4.94354 -27.5545 -0.129937 -4.18599 40.426 -1.89409 4.90121 7.16905 -0.0 -0.0 0.0 0.0 0.0 
